<?xml version="1.0"?>
<svg width="640" height="480" xmlns="http://www.w3.org/2000/svg" xmlns:svg="http://www.w3.org/2000/svg">
 <!-- Created with SVG-edit - http://svg-edit.googlecode.com/ -->
 <defs>
  <radialGradient cy="0.667969" cx="0.608093" spreadMethod="pad" id="svg_4">
   <stop offset="0" stop-color="#d215d6"/>
   <stop offset="1" stop-color="#2dea29"/>
  </radialGradient>
 </defs>
 <g>
  <title>Layer 1</title>
  <ellipse ry="37" rx="99" id="svg_1" cy="69" cx="146" stroke-width="5" stroke="#000000" fill="#FF0000"/>
  <path transform="rotate(-90 129.1119537353516,168.21865844726562) " opacity="0.23" stroke="url(#svg_4)" id="svg_3" d="m165.762996,154.801159c-0.341562,-6.38572 -12.255379,-11.516754 -26.909115,-11.520008c-9.793908,0.001627 -18.347799,2.297818 -23.047984,5.723389c-2.209013,-0.532143 -4.752162,-0.84134 -7.462379,-0.84134c-8.461075,0.003255 -15.344284,2.938994 -15.652432,6.616804c-8.884315,1.279097 -15.314583,4.922733 -15.322008,9.25311c0,5.389782 9.975827,9.764098 22.275757,9.764098l0,-0.003255l19.569253,0l-8.041548,5.529734l7.339862,-0.668841l-9.816184,14.501313l33.925978,-16.439487l-7.937595,0.369408l8.045261,-3.292128l15.849201,0c12.296218,0 22.275757,-4.374316 22.275757,-9.764098c-0.007425,-4.291321 -6.326315,-7.920311 -15.091826,-9.2287zm-7.183932,15.741354l-58.937941,0c-8.201191,-0.009764 -14.839367,-2.916211 -14.854217,-6.511026c-0.007425,-3.225407 5.383308,-5.887751 12.437298,-6.397112c0.983846,-0.069976 1.863738,-0.310824 2.439195,-0.673723c0.575457,-0.362899 0.787077,-0.808793 0.605158,-1.241668c-0.103954,-0.240848 -0.167068,-0.468677 -0.167068,-0.689996c0.014851,-1.993503 3.694063,-3.606207 8.24203,-3.609462c2.402069,0 4.518266,0.452403 6.062719,1.189593c0.865042,0.418229 2.179312,0.610256 3.441604,0.502851c1.269718,-0.107405 2.324104,-0.499596 2.777044,-1.02523c2.780757,-3.241681 9.883011,-5.552517 18.232707,-5.549262c10.762903,0.006509 19.469012,3.824272 19.495,8.541959c0,0.262003 -0.033414,0.530516 -0.100241,0.808793c-0.181919,0.84134 1.132351,1.601312 3.02579,1.75591c6.905485,0.559808 12.155138,3.199369 12.144,6.384093c-0.014851,3.596443 -6.641888,6.504517 -14.84308,6.514281z" stroke-linecap="round" stroke-dasharray="null" fill="#00ff7f"/>
  <text style="cursor: move;" xml:space="preserve" text-anchor="middle" font-family="serif" font-size="24" id="svg_11" y="107.999997" x="323.750023" opacity="0.23" stroke-linecap="round" stroke-linejoin="null" stroke-dasharray="null" stroke-width="0" stroke="url(#svg_4)" fill="#000000">Enter command</text>
 </g>
</svg>